<?xml version="1.0" encoding="UTF-8"?>
<svg width="33px" height="28px" viewBox="0 0 33 28" version="1.1" xmlns="http://www.w3.org/2000/svg" xmlns:xlink="http://www.w3.org/1999/xlink">
    <!-- Generator: Sketch 49.3 (51167) - http://www.bohemiancoding.com/sketch -->
    <title>Fill 1</title>
    <desc>Created with Sketch.</desc>
    <defs></defs>
    <g id="Page-1" stroke="none" stroke-width="1" fill="none" fill-rule="evenodd">
        <g id="Components" transform="translate(-755.000000, -1464.000000)" fill="#B2B2B2">
            <path d="M785.606127,1477.96452 L771.488123,1492 L757.40172,1477.94086 C755.853164,1476.39538 755,1474.34525 755,1472.16108 C755,1469.97691 755.845342,1467.92678 757.39374,1466.38919 C758.934317,1464.85159 760.98842,1464 763.169008,1464 C765.357417,1464 767.41942,1464.85159 768.967818,1466.39707 L770.753386,1468.1791 C771.172107,1468.59701 771.84364,1468.59701 772.262361,1468.1791 L774.03205,1466.41284 C775.580527,1464.86736 777.642451,1464.01577 779.823039,1464.01577 C782.003468,1464.01577 784.057571,1464.86736 785.606127,1466.40496 C787.154605,1467.95044 787.999947,1470.00056 787.999947,1472.18474 C788.007768,1474.36891 787.154605,1476.41904 785.606127,1477.96452" id="Fill-1"></path>
        </g>
    </g>
</svg>